HIERARCHY
ROOT Hips
{
	OFFSET 0.00 0.00 0.00
	CHANNELS 6 Xposition Yposition Zposition Xrotation Yrotation Zrotation
	JOINT LeftUpLeg
	{
		OFFSET 3.62969 0.00000 0.00000
		CHANNELS 3 Xrotation Yrotation Zrotation
		JOINT LeftLeg
		{
			OFFSET 0.00000 -17.03056 0.00000
			CHANNELS 3 Xrotation Yrotation Zrotation
			JOINT LeftFoot
			{
				OFFSET 0.00000 -15.71209 0.00000
				CHANNELS 3 Xrotation Yrotation Zrotation
				JOINT LeftToeBase
				{
					OFFSET 0.00000 -1.61881 6.04147
					CHANNELS 3 Xrotation Yrotation Zrotation
					End Site
					{
						OFFSET 0.00000 0.00000 2.95275
					}
				}
			}
		}
	}
	JOINT RightUpLeg
	{
		OFFSET -3.62969 0.00000 0.00000
		CHANNELS 3 Xrotation Yrotation Zrotation
		JOINT RightLeg
		{
			OFFSET 0.00000 -17.03056 0.00000
			CHANNELS 3 Xrotation Yrotation Zrotation
			JOINT RightFoot
			{
				OFFSET 0.00000 -15.71209 0.00000
				CHANNELS 3 Xrotation Yrotation Zrotation
				JOINT RightToeBase
				{
					OFFSET 0.00000 -1.61881 6.04147
					CHANNELS 3 Xrotation Yrotation Zrotation
					End Site
					{
						OFFSET 0.00000 0.00000 2.95275
					}
				}
			}
		}
	}
	JOINT Spine
	{
		OFFSET 0.00000 0.03937 0.00000
		CHANNELS 3 Xrotation Yrotation Zrotation
		JOINT Spine1
		{
			OFFSET 0.00000 7.22408 0.00000
			CHANNELS 3 Xrotation Yrotation Zrotation
			JOINT Neck
			{
				OFFSET 0.00000 10.28565 0.00000
				CHANNELS 3 Xrotation Yrotation Zrotation
				JOINT Head
				{
					OFFSET 0.00000 6.80825 0.00000
					CHANNELS 3 Xrotation Yrotation Zrotation
					End Site
					{
						OFFSET 0.00000 4.52755 0.00000
					}
				}
			}
			JOINT LeftShoulder
			{
				OFFSET 0.00000 10.28565 0.00000
				CHANNELS 3 Xrotation Yrotation Zrotation
				JOINT LeftArm
				{
					OFFSET 7.17573 -0.00003 0.00000
					CHANNELS 3 Xrotation Yrotation Zrotation
					JOINT LeftForeArm
					{
						OFFSET 9.77829 -0.00004 0.00000
						CHANNELS 3 Xrotation Yrotation Zrotation
						JOINT LeftHand
						{
							OFFSET 9.41947 -0.00003 0.00000
							CHANNELS 3 Xrotation Yrotation Zrotation
							JOINT LeftHandThumb
							{
								OFFSET 0.00000 0.00000 0.00000
								CHANNELS 3 Xrotation Yrotation Zrotation
								End Site
								{
									OFFSET 0.00000 0.00000 3.93700
								}
							}
							JOINT L_Wrist_End
							{
								OFFSET 3.93700 -0.00001 0.00000
								CHANNELS 3 Xrotation Yrotation Zrotation
							}
						}
					}
				}
			}
			JOINT RightShoulder
			{
				OFFSET 0.00000 10.28565 0.00000
				CHANNELS 3 Xrotation Yrotation Zrotation
				JOINT RightArm
				{
					OFFSET -7.17573 -0.00003 0.00000
					CHANNELS 3 Xrotation Yrotation Zrotation
					JOINT RightForeArm
					{
						OFFSET -9.77829 -0.00004 0.00000
						CHANNELS 3 Xrotation Yrotation Zrotation
						JOINT RightHand
						{
							OFFSET -9.41947 -0.00003 0.00000
							CHANNELS 3 Xrotation Yrotation Zrotation
							JOINT RightHandThumb
							{
								OFFSET 0.00000 0.00000 0.00000
								CHANNELS 3 Xrotation Yrotation Zrotation
								End Site
								{
									OFFSET 0.00000 0.00000 3.93700
								}
							}
							JOINT R_Wrist_End
							{
								OFFSET -5.39369 -0.00002 0.00000
								CHANNELS 3 Xrotation Yrotation Zrotation
							}
						}
					}
				}
			}
		}
	}
}
MOTION
Frames: 6
Frame Time: 0.008333
 -0.1702 29.2461 -9.6207 7.7794 6.4635 -2.3194 -42.0804 1.1449 34.8510 49.0837 -0.0000 0.0000 5.8037 10.4591 -25.6412 -10.5774 0.0000 0.0000 -12.6788 7.1222 -30.8804 32.4560 -0.0000 -0.0000 -9.8222 -11.4866 28.0004 -8.1928 0.0000 -0.0000 -13.1331 4.8690 2.1799 15.2144 -3.7830 -2.3736 26.2289 9.2385 -0.8430 -43.4484 7.1281 -13.3354 5.4214 -5.9499 25.2096 -27.8553 18.1373 -14.1379 -0.0001 -16.2876 -0.0000 12.5093 9.0533 17.3754 -0.0000 0.0000 0.0000 -0.0000 0.0000 0.0000 -3.7775 5.0529 -25.1238 -20.6628 -29.9221 14.0629 -0.0001 25.6342 0.0000 6.0278 -19.9729 -10.0359 0.0000 0.0000 -0.0000 0.0000 0.0000 -0.0000
 -0.0675 29.1812 -9.5866 7.7292 6.7599 -2.4247 -43.0307 1.6829 34.6947 50.2691 -0.0000 0.0000 4.6718 11.9590 -24.4443 -10.5864 -0.0000 0.0000 -12.3776 6.9378 -31.0114 32.4019 -0.0000 0.0000 -9.7045 -11.6882 28.2759 -8.1239 0.0000 -0.0000 -13.1449 4.8393 2.1738 15.2755 -3.8430 -2.4545 26.2093 9.1954 -0.7633 -43.4811 7.0873 -13.2464 5.4241 -5.9948 25.2428 -27.8397 18.0038 -14.0255 -0.0001 -16.2675 -0.0000 12.4005 8.9963 17.4390 -0.0000 0.0000 -0.0000 -0.0000 0.0000 -0.0000 -3.7464 4.9831 -25.0690 -20.7460 -30.0262 14.0804 -0.0001 25.7367 0.0000 5.8754 -19.9753 -10.2214 0.0000 -0.0000 0.0000 0.0000 -0.0000 0.0000
 0.0466 29.1086 -9.5512 7.6880 7.0033 -2.5316 -43.7497 2.0804 34.5689 51.3592 -0.0000 -0.0000 3.1040 13.0435 -23.5619 -10.7955 -0.0000 -0.0000 -12.0997 6.7840 -31.1553 32.3502 -0.0000 0.0000 -9.5967 -11.8673 28.5808 -8.0450 0.0000 -0.0000 -13.1661 4.8277 2.1535 15.3137 -3.8725 -2.5127 26.1542 9.1254 -0.6637 -43.4029 7.0807 -13.1389 5.4503 -6.0360 25.3247 -27.8556 17.9147 -13.9632 -0.0001 -16.2493 -0.0000 12.3278 8.9280 17.4971 0.0000 0.0000 0.0000 0.0000 0.0000 0.0000 -3.7803 4.8639 -24.9732 -20.7908 -29.9706 14.0840 -0.0001 25.8212 0.0000 5.6003 -20.0244 -10.4733 -0.0000 0.0000 -0.0000 -0.0000 0.0000 -0.0000
 0.1676 29.0345 -9.5182 7.6876 7.2238 -2.6439 -44.2333 2.1946 34.4722 52.2450 -0.0000 0.0000 1.3345 12.9232 -22.1774 -10.9936 -0.0000 -0.0000 -11.8051 6.7347 -31.2848 32.2755 -0.0000 0.0000 -9.4560 -12.1394 28.8995 -7.9634 0.0000 -0.0000 -13.1915 4.8203 2.1327 15.3472 -3.8993 -2.5765 26.0532 9.0371 -0.5476 -43.3732 7.1092 -13.0488 5.3630 -6.0490 25.3926 -27.8051 17.7947 -13.9132 -0.0001 -16.2414 -0.0000 12.2790 8.8777 17.5049 0.0000 0.0000 -0.0000 0.0000 0.0000 -0.0000 -3.8309 4.8251 -24.9380 -20.7388 -30.0898 14.1665 -0.0001 25.9793 0.0000 5.4577 -19.9833 -10.6109 -0.0000 0.0000 -0.0000 -0.0000 0.0000 -0.0000
 0.3019 28.9550 -9.4852 7.7108 7.3973 -2.7706 -44.4885 2.1190 34.3941 52.9876 -0.0000 0.0000 -0.6517 12.3818 -21.0338 -11.2298 -0.0000 -0.0000 -11.5027 6.7524 -31.4067 32.1651 -0.0000 0.0000 -9.2754 -12.4632 29.1925 -7.8818 -0.0000 0.0000 -13.2149 4.8262 2.1286 15.3248 -3.9113 -2.6306 25.9355 9.0270 -0.4770 -43.2771 7.0730 -12.9322 5.3331 -6.0229 25.4338 -27.8375 17.6463 -13.8444 -0.0001 -16.1884 -0.0000 12.2425 8.8289 17.5334 -0.0000 -0.0000 0.0000 -0.0000 -0.0000 0.0000 -3.8380 4.8463 -24.9187 -20.6638 -30.2762 14.2309 -0.0001 26.1502 0.0000 5.3924 -19.8866 -10.6954 -0.0000 -0.0000 0.0000 -0.0000 -0.0000 0.0000
 0.4483 28.8697 -9.4518 7.7463 7.5338 -2.9166 -44.5699 1.8366 34.3342 53.6020 0.0000 0.0000 -1.9514 11.7190 -21.5679 -11.4162 -0.0000 0.0000 -11.1891 6.8281 -31.5197 32.0360 -0.0000 0.0000 -9.0656 -12.8005 29.5221 -7.7817 0.0000 -0.0000 -13.2403 4.8147 2.1203 15.2534 -3.9341 -2.6692 25.8390 8.9923 -0.3782 -43.1430 7.1088 -12.8091 5.3257 -5.9678 25.4872 -27.7756 17.5130 -13.7808 -0.0001 -16.0526 -0.0000 12.1657 8.5238 17.5828 -0.0000 -0.0000 -0.0000 -0.0000 -0.0000 -0.0000 -3.8515 4.8039 -24.8309 -20.6242 -30.2184 14.2858 -0.0001 26.2670 0.0000 5.3533 -19.8751 -10.7879 0.0000 0.0000 0.0000 0.0000 0.0000 0.0000
